{"title":"The.Time.Shifters.1999.DVDRiP.XViD.NORDIC-Zen_Bud ","uid":6019153,"size":1379193443,"categoryP":"video","categoryS":"movies","magnet":"?xt=urn:btih:d0397044f34d6e03a41c95673f9096bc674255f0&amp;dn=The.Time.Shifters.1999.DVDRiP.XViD.NORDIC-Zen_Bud+&amp;tr=udp%3A%2F%2Ftracker.openbittorrent.com%3A80&amp;tr=udp%3A%2F%2Fopen.demonii.com%3A1337&amp;tr=udp%3A%2F%2Ftracker.coppersurfer.tk%3A6969&amp;tr=udp%3A%2F%2Fexodus.desync.com%3A6969","seeders":1,"leechers":0,"uploader":"Zen_Bud","files":-1,"time":1291742176,"description":"**** The.Time.Shifters.1999.DVDRiP.XViD.NORDIC-Zen_Bud ****\n\nFormat                           : AVI\nFile size                        : 1.27 GiB\nDuration                         : 1h 27mn\nOverall bit rate                 : 2 070 Kbps\n\nVideo\n\nFormat                           : MPEG-4 Visual\nCodec ID/Hint                    : XviD\nDuration                         : 1h 27mn\nBit rate                         : 1 929 Kbps\nWidth                            : 714 pixels\nHeight                           : 576 pixels\nDisplay aspect ratio             : 4:3\nStream size                      : 1.19 GiB (93%)\nWriting library                  : XviD 1.1.2 (UTC 2006-11-01)\n\nAudio\n\nFormat                           : MPEG Audio\nCodec ID/Hint                    : MP3\nDuration                         : 1h 27mn\nBit rate                         : 128 Kbps\nChannel(s)                       : 2 channels\nSampling rate                    : 48.0 KHz\nStream size                      : 80.6 MiB (6%)\nLanguage                         : English\n\nText #1\nLanguage                         : Danish\n\nText #2\nLanguage                         : Swedish\n\nText #3\nLanguage                         : Norwegian\n\nText #4\nLanguage                         : Finnish\n\n\nA reporter, learning of time travelers visiting 20th century disasters, tries to change the history they know by averting upcoming disasters. ","torrent":{"xt":"urn:btih:d0397044f34d6e03a41c95673f9096bc674255f0","amp;dn":"The.Time.Shifters.1999.DVDRiP.XViD.NORDIC-Zen_Bud+","amp;tr":["udp%3A%2F%2Ftracker.openbittorrent.com%3A80","udp%3A%2F%2Fopen.demonii.com%3A1337","udp%3A%2F%2Ftracker.coppersurfer.tk%3A6969","udp%3A%2F%2Fexodus.desync.com%3A6969"],"infoHash":"d0397044f34d6e03a41c95673f9096bc674255f0","infoHashBuffer":{"type":"Buffer","data":[208,57,112,68,243,77,110,3,164,28,149,103,63,144,150,188,103,66,85,240]},"announce":[],"urlList":[]}}